<svg width="30" height="47" viewBox="0 0 30 47" fill="none" xmlns="http://www.w3.org/2000/svg">
<g clip-path="url(#clip0)">
<path d="M1.3 31.7586C1.3 31.7586 0.8 25.7586 1 24.1586C1.5 20.9586 3.8 19.3586 4.5 17.2586C5.2 15.1586 2.7 7.8586 7.2 3.9586C11.7 0.0585985 17.1 0.558599 20.9 3.9586C24.7 7.3586 26.5 13.7586 22.9 16.4586C19.3 19.1586 18.8 19.2586 18.8 19.9586C18.8 20.6586 17.7 20.6586 17.3 20.5586C16.9 20.5586 15.8 21.3586 15.8 21.7586C15.8 22.1586 14.4 23.3586 12 21.4586C9.6 19.5586 9.2 20.0586 9.2 20.5586C9.2 21.0586 10.8 23.4586 12.1 24.4586C13.4 25.4586 13.3 26.0586 15.3 24.7586C17.3 23.4586 18.6 22.8586 18.7 22.3586C18.8 21.9586 18.5 20.8586 18.9 20.7586C19.3 20.6586 19.9 21.2586 20.3 20.8586C20.7 20.5586 21 19.4586 22.2 19.8586C23.3 20.2586 26.4 23.2586 24.6 25.1586C22.8 27.0586 21.4 25.0586 19.7 26.1586C18 27.2586 15.8 27.9586 15.2 28.9586C14.6 29.9586 14.8 34.4586 15.4 35.1586C16 35.9586 17.3 34.2586 17.8 33.3586C18.3 32.4586 19.2 31.4586 21.4 33.4586C23.6 35.4586 23.8 35.7586 24.7 34.8586C25.6 33.9586 26.4 32.5586 26.9 32.7586C27.4 32.9586 26.4 35.2586 25.2 36.4586C23.9 37.5586 23.3 39.1586 24.6 39.1586C25.9 39.1586 27.9 38.0586 28.5 38.2586C29.1 38.4586 28.7 39.5586 27.6 39.8586C26.5 40.1586 24.6 41.7586 23.4 41.4586C22.2 41.1586 21.6 38.3586 21.2 37.8586C20.8 37.3586 19.6 37.7586 18.4 39.5586C17.2 41.3586 17.3 43.4586 15.8 44.2586C14.3 45.0586 9.1 47.7586 5.7 42.5586C2.3 37.3586 1.3 31.7586 1.3 31.7586Z" stroke="black" stroke-width="0.924" stroke-miterlimit="10" stroke-linecap="round"/>
</g>
<defs>
<clipPath id="clip0">
<rect width="28.8" height="45.5" fill="white" transform="translate(0.5 0.758545)"/>
</clipPath>
</defs>
</svg>
