<svg width="40" height="45" viewBox="0 0 40 45" fill="none" xmlns="http://www.w3.org/2000/svg">
<g clip-path="url(#clip0)">
<path d="M17.6 9.5588C17.6 9.5588 19.8 7.1588 19.3 5.2588C18.8 3.3588 15.4 0.258798 11.7 1.5588C8 2.8588 3.5 9.1588 3.7 11.9588C3.9 14.7588 1.6 16.7588 1.3 18.6588C1 20.5588 0.700001 24.2588 1.3 26.4588C1.9 28.6588 3 32.2588 2.6 34.6588C2.2 37.0588 5.6 40.2588 8 41.7588C10.4 43.2588 17.3 45.4588 18 42.6588C18.7 39.8588 18 35.5588 17.4 34.4588C16.8 33.3588 19.4 33.1588 19.4 33.1588V23.8588C19.4 23.8588 14.8 22.1588 16.3 20.3588C17.8 18.5588 19.4 20.5588 19.4 20.5588V11.2588C19.4 11.2588 17.6 11.9588 17.6 9.5588Z" stroke="black" stroke-miterlimit="10" stroke-linecap="round"/>
<path d="M23 9.5588C23 9.5588 20.8 7.1588 21.3 5.2588C21.8 3.3588 25.2 0.258798 28.9 1.5588C32.6 2.8588 37.1 9.1588 36.9 11.9588C36.7 14.7588 39.1 16.7588 39.3 18.6588C39.5 20.5588 39.9 24.2588 39.3 26.4588C38.7 28.6588 37.6 32.2588 38 34.6588C38.4 37.0588 35 40.2588 32.6 41.7588C30.2 43.2588 23.3 45.4588 22.6 42.6588C22 39.8588 22.6 35.5588 23.2 34.4588C23.8 33.3588 21.2 33.1588 21.2 33.1588V23.8588C21.2 23.8588 25.8 22.1588 24.3 20.3588C22.8 18.6588 21.2 20.5588 21.2 20.5588V11.2588C21.2 11.2588 23 11.9588 23 9.5588Z" stroke="black" stroke-miterlimit="10" stroke-linecap="round"/>
<path d="M5.9 32.9587C5.9 32.9587 5.1 34.2587 5.9 36.0587C6.7 37.8587 9 38.9587 9 38.9587" stroke="black" stroke-miterlimit="10" stroke-linecap="round"/>
<path d="M30.4 32.9587C30.4 32.9587 31.6 29.7587 31.6 28.9587C31.6 28.1587 30.4 26.4587 30.4 24.9587" stroke="black" stroke-miterlimit="10" stroke-linecap="round"/>
<path d="M34.3 32.9587C34.3 32.9587 34.9 36.6587 34.3 37.0587C33.7 37.3587 32.2 38.9587 32.2 38.9587" stroke="black" stroke-miterlimit="10" stroke-linecap="round"/>
<path d="M34.8 22.6588C34.8 22.6588 36.1 24.0588 35.6 24.9588" stroke="black" stroke-miterlimit="10" stroke-linecap="round"/>
<path d="M13.8 40.0588C13.8 40.0588 15.7 40.4588 15.7 38.1588" stroke="black" stroke-miterlimit="10" stroke-linecap="round"/>
<path d="M26.5 36.7588C26.5 36.7588 26.3 38.2588 27.1 39.1588" stroke="black" stroke-miterlimit="10" stroke-linecap="round"/>
</g>
<defs>
<clipPath id="clip0">
<rect width="39.5" height="43.8" fill="white" transform="translate(0.5 0.758789)"/>
</clipPath>
</defs>
</svg>
