<svg width="45" height="40" viewBox="0 0 45 40" fill="none" xmlns="http://www.w3.org/2000/svg">
<g clip-path="url(#clip0)">
<path d="M21.5 1.25854C21.5 1.25854 22.3 2.15854 23.7 1.25854" stroke="black" stroke-width="0.924" stroke-miterlimit="10" stroke-linecap="round"/>
<path d="M21.5 2.9585C21.5 2.9585 22.3 3.8585 23.7 2.9585" stroke="black" stroke-width="0.924" stroke-miterlimit="10" stroke-linecap="round"/>
<path d="M21.5 4.75854C21.5 4.75854 22.3 5.65854 23.7 4.75854" stroke="black" stroke-width="0.924" stroke-miterlimit="10" stroke-linecap="round"/>
<path d="M21.5 6.4585C21.5 6.4585 22.3 7.3585 23.7 6.4585" stroke="black" stroke-width="0.924" stroke-miterlimit="10" stroke-linecap="round"/>
<path d="M21.5 8.25854C21.5 8.25854 22.3 9.15854 23.7 8.25854" stroke="black" stroke-width="0.924" stroke-miterlimit="10" stroke-linecap="round"/>
<path d="M21.5 9.9585C21.5 9.9585 22.3 10.8585 23.7 9.9585" stroke="black" stroke-width="0.924" stroke-miterlimit="10" stroke-linecap="round"/>
<path d="M21.5 11.7585C21.5 11.7585 22.3 12.6585 23.7 11.7585" stroke="black" stroke-width="0.924" stroke-miterlimit="10" stroke-linecap="round"/>
<path d="M21.5 13.4585C21.5 13.4585 22.3 14.3585 23.7 13.4585" stroke="black" stroke-width="0.924" stroke-miterlimit="10" stroke-linecap="round"/>
<path d="M21.5 15.2585C21.5 15.2585 22.3 16.1585 23.7 15.2585" stroke="black" stroke-width="0.924" stroke-miterlimit="10" stroke-linecap="round"/>
<path d="M21.5 16.9585C21.5 16.9585 22.3 17.8585 23.7 16.9585" stroke="black" stroke-width="0.924" stroke-miterlimit="10" stroke-linecap="round"/>
<path d="M22.6 18.7585V20.9585" stroke="black" stroke-width="0.924" stroke-miterlimit="10" stroke-linecap="round"/>
<path d="M21.5 19.8585C21.5 19.8585 17.5 20.3585 16.4 21.1585C15.3 21.9585 13.5 25.4585 12.9 26.0585C12.4 26.6585 9 28.8585 8.3 29.3585" stroke="black" stroke-width="0.924" stroke-miterlimit="10" stroke-linecap="round"/>
<path d="M11.4 11.3585C11.4 11.3585 11.8 15.7585 13 17.0585C14.2 18.3585 16.4 21.2585 16.4 21.2585" stroke="black" stroke-width="0.924" stroke-miterlimit="10" stroke-linecap="round"/>
<path d="M13.1 10.8585C13.1 10.8585 15.2 12.1585 15.2 12.8585C15.2 13.5585 14.3 14.2585 14.3 15.1585C14.3 16.0585 14.3 18.4585 14.3 18.4585" stroke="black" stroke-width="0.924" stroke-miterlimit="10" stroke-linecap="round"/>
<path d="M8.3 17.1586C8.3 17.1586 9.5 16.5586 10.4 16.6586C11.3 16.6586 13.5 17.5586 13.5 17.5586" stroke="black" stroke-width="0.924" stroke-miterlimit="10" stroke-linecap="round"/>
<path d="M14.2 23.9585C14.2 23.9585 12.8 24.0585 11.9 24.5585C11 25.1585 7.9 27.7585 6.5 26.8585" stroke="black" stroke-width="0.924" stroke-miterlimit="10" stroke-linecap="round"/>
<path d="M7.3 19.5586C7.3 19.5586 6.6 20.9586 8.1 22.0586C9.6 23.1586 11 25.0586 11 25.0586" stroke="black" stroke-width="0.924" stroke-miterlimit="10" stroke-linecap="round"/>
<path d="M19.7 17.9585C19.7 17.9585 19.8 15.2585 18.5 14.4585C17.2 13.6585 17 10.8585 17.1 9.25854C17.1 7.65854 18.5 3.75854 15.5 3.75854C12.5 3.75854 5.5 9.75854 3.8 16.7585C2.1 23.7585 -0.099997 31.9585 1.6 35.5585C3.3 39.1585 4.4 39.3585 6.1 38.6585C7.9 37.9585 9.7 36.8585 11.8 37.6585C13.9 38.4585 16.4 34.7585 16.6 32.1585C16.8 29.5585 16.6 24.6585 18.5 22.8585" stroke="black" stroke-width="0.924" stroke-miterlimit="10" stroke-linecap="round"/>
<path d="M23.8 19.8585C23.8 19.8585 27.8 20.3585 28.9 21.1585C30 21.9585 31.8 25.4585 32.4 26.0585C32.9 26.6585 36.3 28.8585 37 29.3585" stroke="black" stroke-width="0.924" stroke-miterlimit="10" stroke-linecap="round"/>
<path d="M33.8 11.3585C33.8 11.3585 33.4 15.7585 32.2 17.0585C31 18.3585 28.8 21.2585 28.8 21.2585" stroke="black" stroke-width="0.924" stroke-miterlimit="10" stroke-linecap="round"/>
<path d="M32.2 10.8585C32.2 10.8585 30.1 12.1585 30.1 12.8585C30.1 13.5585 31 14.2585 31 15.1585C31 16.0585 31 18.4585 31 18.4585" stroke="black" stroke-width="0.924" stroke-miterlimit="10" stroke-linecap="round"/>
<path d="M37 17.1586C37 17.1586 35.8 16.5586 34.9 16.6586C34 16.6586 31.8 17.5586 31.8 17.5586" stroke="black" stroke-width="0.924" stroke-miterlimit="10" stroke-linecap="round"/>
<path d="M31.1 23.9585C31.1 23.9585 32.5 24.0585 33.4 24.5585C34.3 25.0585 37.4 27.7585 38.8 26.8585" stroke="black" stroke-width="0.924" stroke-miterlimit="10" stroke-linecap="round"/>
<path d="M38 19.5586C38 19.5586 38.7 20.9586 37.2 22.0586C35.8 23.1586 34.3 25.0586 34.3 25.0586" stroke="black" stroke-width="0.924" stroke-miterlimit="10" stroke-linecap="round"/>
<path d="M25.6 17.9585C25.6 17.9585 25.5 15.2585 26.8 14.4585C28.1 13.6585 28.3 10.8585 28.2 9.25854C28.2 7.65854 26.8 3.75854 29.8 3.75854C32.8 3.75854 39.8 9.75854 41.5 16.7585C43.2 23.7585 45.4 31.9585 43.7 35.5585C42 39.1585 40.9 39.3585 39.2 38.6585C37.4 37.9585 35.6 36.8585 33.5 37.6585C31.4 38.4585 28.9 34.7585 28.7 32.1585C28.5 29.5585 28.7 24.6585 26.8 22.8585" stroke="black" stroke-width="0.924" stroke-miterlimit="10" stroke-linecap="round"/>
</g>
<defs>
<clipPath id="clip0">
<rect width="44.3" height="38.6" fill="white" transform="translate(0.5 0.758545)"/>
</clipPath>
</defs>
</svg>
