<svg width="34" height="49" viewBox="0 0 34 49" fill="none" xmlns="http://www.w3.org/2000/svg">
<g clip-path="url(#clip0)">
<path d="M8.2 5.55864C8.2 5.55864 8.9 8.45864 7.2 10.1586C5.5 11.8586 0.300002 18.4586 1.1 23.3586C1.9 28.2586 3 25.7586 3.3 28.5586C3.6 31.3586 4.8 40.8586 9.7 44.2586C14.6 47.6586 19.5 51.3586 25.2 44.2586C30.9 37.1586 33.1 30.5586 33.3 28.0586C33.5 25.5586 31.6 23.1586 31.6 20.4586C31.6 17.7586 29.1 11.4586 28.7 14.1586C28.4 16.8586 29.2 19.0586 28 19.3586C26.8 19.6586 26.3 16.1586 26.3 15.0586C26.3 13.9586 26 12.1586 27.4 12.0586C28.9 11.8586 31.2 11.9586 31.6 10.6586C32 9.35864 31 8.25864 30.1 8.35864C29.2 8.45864 29 9.55864 26.9 9.75864C24.8 9.85864 23 10.2586 23.6 9.25864C24.2 8.25864 26.3 6.05864 25.7 5.15864C25.1 4.25864 23.8 4.35864 23.8 3.95864C23.8 3.55864 24.5 2.05864 23.5 2.05864C22.5 2.05864 22.9 3.25864 21.9 3.45864C20.9 3.65864 19.2 4.25864 19.1 3.15864C19 2.05864 17.1 0.858636 16.1 1.35864C15.1 1.85864 15.3 2.95864 14.8 3.75864C13 4.55864 11.4 5.55864 11.1 5.65864C10.7 5.85864 8.5 3.35864 8.2 5.55864Z" stroke="black" stroke-miterlimit="10" stroke-linecap="round"/>
<path d="M23.7 9.15864C23.7 9.15864 20.6 7.15864 17.6 8.25864C14.6 9.35864 13.4 9.65864 13.3 13.4586C13.2 17.2586 10.3 20.5586 8.20001 22.4586" stroke="black" stroke-miterlimit="10" stroke-linecap="round"/>
<path d="M13.3 13.2587C13.3 13.2587 13.6 14.5587 17.6 15.1587C21.6 15.7587 23.9 15.9587 22.6 19.0587C21.3 22.1587 18 24.3587 18.3 29.8587" stroke="black" stroke-miterlimit="10" stroke-linecap="round"/>
<path d="M22.1 20.1587C22.1 20.1587 24.6 21.9587 24.1 24.7587C23.6 27.4587 23 28.6587 22.1 33.0587C21.2 37.4587 22.1 40.7587 22.1 40.7587" stroke="black" stroke-width="0.5" stroke-miterlimit="10" stroke-linecap="round"/>
<path d="M23.7 26.6587C23.7 26.6587 25.7 27.3587 25.1 29.9587C24.4 32.6587 24 33.5587 26.2 35.4587" stroke="black" stroke-width="0.5" stroke-miterlimit="10" stroke-linecap="round"/>
<path d="M2.39999 26.6586C2.39999 26.6586 7.09999 25.5586 10.2 29.3586C13.3 33.1586 14.7 33.5586 15.6 33.5586" stroke="black" stroke-width="0.5" stroke-miterlimit="10" stroke-linecap="round"/>
<path d="M6.29999 27.3586C6.29999 27.3586 5.49999 29.2586 7.49999 32.5586C9.49999 35.8586 13 35.4586 13.9 37.7586C14.7 40.0586 14.9 43.1586 14.9 43.1586" stroke="black" stroke-width="0.5" stroke-miterlimit="10" stroke-linecap="round"/>
<path d="M17 15.0586C17 15.0586 12.2 9.25859 20.5 8.05859" stroke="black" stroke-miterlimit="10" stroke-linecap="round"/>
</g>
<defs>
<clipPath id="clip0">
<rect width="33.4" height="48" fill="white" transform="translate(0.5 0.758667)"/>
</clipPath>
</defs>
</svg>
