<svg width="30" height="45" viewBox="0 0 30 45" fill="none" xmlns="http://www.w3.org/2000/svg">
<g clip-path="url(#clip0)">
<path d="M1.1 34.7587C1.1 34.7587 0.100005 39.8587 3.6 43.4587C13.7 33.2587 23.8 24.5587 26.1 16.1587C28.4 7.75868 25.8 1.55868 18.7 1.25868C11.6 0.958679 6.2 2.45868 6.1 11.5587C6.7 21.0587 11 22.3587 11 22.3587C11 22.3587 15.3 19.4587 15.1 18.0587C14.9 16.6587 9.5 12.4587 10.2 9.35868C10.9 6.25868 21.4 7.35868 22.3 8.35868C23.2 9.25868 23.4 13.0587 17.8 18.4587C12.2 23.8587 1.3 33.2587 1.1 34.7587Z" stroke="black" stroke-miterlimit="10" stroke-linecap="round"/>
<path d="M21.5 25.0587C22 25.4587 22.5 25.9587 23.4 27.0587C25.7 29.9587 25.7 29.6587 26.8 30.8587C27.9 32.1587 29.2 33.3587 28.9 35.3587C28.7 37.3587 28.2 38.4587 26.9 41.2587C26.4 42.2587 26.1 41.5587 23.6 38.9587C22 37.1587 17.7 31.9587 16.6 30.6587" stroke="black" stroke-miterlimit="10" stroke-linecap="round"/>
</g>
<defs>
<clipPath id="clip0">
<rect width="28.9" height="43.4" fill="white" transform="translate(0.5 0.758667)"/>
</clipPath>
</defs>
</svg>
