<svg width="40" height="46" viewBox="0 0 40 46" fill="none" xmlns="http://www.w3.org/2000/svg">
<g clip-path="url(#clip0)">
<path d="M17.6 10.5588C17.6 10.5588 19.8 8.1588 19.3 6.2588C18.8 4.3588 15.4 1.2588 11.7 2.5588C7.99999 3.8588 3.49999 10.1588 3.69999 12.9588C3.89999 15.7588 1.59999 17.7588 1.29999 19.6588C0.999993 21.5588 0.699993 25.2588 1.29999 27.4588C1.89999 29.6588 2.99999 33.2588 2.59999 35.6588C2.19999 38.0588 5.59999 41.2588 7.99999 42.7588C10.4 44.2588 17.3 46.4588 18 43.6588C18.7 40.8588 18 36.5588 17.4 35.4588C16.8 34.3588 19.4 34.1588 19.4 34.1588V24.8588C19.4 24.8588 14.8 23.1588 16.3 21.3588C17.8 19.5588 19.4 21.5588 19.4 21.5588V12.2588C19.4 12.3588 17.6 12.9588 17.6 10.5588Z" stroke="black" stroke-miterlimit="10" stroke-linecap="round"/>
<path d="M36.2 10.2588C36.7 11.2588 36.9 12.2588 36.9 12.9588C36.7 15.7588 39.1 17.7588 39.3 19.6588C39.5 21.5588 39.9 25.2588 39.3 27.4588C38.7 29.6588 37.6 33.2588 38 35.6588C38.4 38.0588 35 41.2588 32.6 42.7588C30.2 44.2588 23.3 46.4588 22.6 43.6588C22 40.8588 22.6 36.5588 23.2 35.4588C23.8 34.3588 21.2 34.1588 21.2 34.1588V24.8588C21.2 24.8588 25.8 23.1588 24.3 21.3588C22.8 19.6588 21.2 21.5588 21.2 21.5588V12.2588C21.2 12.2588 23 12.8588 23 10.5588C23 10.5588 20.8 8.1588 21.3 6.2588C21.8 4.3588 25.2 1.2588 28.9 2.5588C29.2 2.6588 29.6 2.8588 29.9 3.0588" stroke="black" stroke-miterlimit="10" stroke-linecap="round"/>
<path d="M10.2 25.9587C10.2 25.9587 9.00001 32.1587 11.1 33.9587" stroke="black" stroke-miterlimit="10" stroke-linecap="round"/>
<path d="M5.89999 33.9587C5.89999 33.9587 5.09999 35.2587 5.89999 37.0587C6.69999 38.8587 8.99999 39.9587 8.99999 39.9587" stroke="black" stroke-miterlimit="10" stroke-linecap="round"/>
<path d="M30.4 33.9587C30.4 33.9587 31.6 30.7587 31.6 29.9587C31.6 29.1587 30.4 27.4587 30.4 25.9587" stroke="black" stroke-miterlimit="10" stroke-linecap="round"/>
<path d="M34.3 33.9587C34.3 33.9587 34.9 37.6587 34.3 38.0587C33.7 38.3587 32.2 39.9587 32.2 39.9587" stroke="black" stroke-miterlimit="10" stroke-linecap="round"/>
<path d="M11.1 6.05884C11.1 6.05884 8.49999 7.65884 8.99999 8.45884C9.49999 9.25884 10.2 11.2588 10.2 11.2588" stroke="black" stroke-miterlimit="10" stroke-linecap="round"/>
<path d="M7.20001 20.6588C7.20001 20.6588 5.50001 17.5588 7.20001 16.7588" stroke="black" stroke-miterlimit="10" stroke-linecap="round"/>
<path d="M34.6 14.7588C34.6 14.7588 33.7 17.4588 34.1 17.7588C34.4 18.0588 35.2 19.3588 35.2 19.3588" stroke="black" stroke-miterlimit="10" stroke-linecap="round"/>
<path d="M13.4 15.0588C13.4 15.0588 14.8 15.5588 14.7 16.7588" stroke="black" stroke-miterlimit="10" stroke-linecap="round"/>
<path d="M29.2 17.0588C29.2 17.0588 27.8 19.3588 28.5 19.9588C29.1 20.5588 29.9 21.1588 29.9 21.1588" stroke="black" stroke-miterlimit="10" stroke-linecap="round"/>
<path d="M34.8 23.6588C34.8 23.6588 36.1 25.0588 35.6 25.9588" stroke="black" stroke-miterlimit="10" stroke-linecap="round"/>
<path d="M5.5 24.8588C5.5 24.8588 4.9 26.4588 5.5 27.1588" stroke="black" stroke-miterlimit="10" stroke-linecap="round"/>
<path d="M13.8 41.0588C13.8 41.0588 15.7 41.4588 15.7 39.1588" stroke="black" stroke-miterlimit="10" stroke-linecap="round"/>
<path d="M26.5 37.7588C26.5 37.7588 26.3 39.2588 27.1 40.1588" stroke="black" stroke-miterlimit="10" stroke-linecap="round"/>
<path d="M34.6 1.25879L31.4 4.45879C31 4.95879 31.3 5.75879 32 5.75879H34.3C34.9 5.75879 35.3 6.45879 35 6.95879L29.5 13.1588" stroke="black" stroke-miterlimit="10" stroke-linecap="round"/>
</g>
<defs>
<clipPath id="clip0">
<rect width="39.5" height="44.8" fill="white" transform="translate(0.5 0.758789)"/>
</clipPath>
</defs>
</svg>
