<svg width="46" height="37" viewBox="0 0 46 37" fill="none" xmlns="http://www.w3.org/2000/svg">
<g clip-path="url(#clip0)">
<path d="M18.5 22.6585C14.9 16.6585 16.3 8.65848 21.9 4.25848C28.1 -0.541523 37 0.458477 41.8 6.65848C46.6 12.8585 45.6 21.7585 39.4 26.5585C33.8 30.9585 25.8 30.4585 20.8 25.5585" stroke="black" stroke-width="0.924" stroke-miterlimit="10" stroke-linecap="round"/>
<path d="M30.7 18.8584C32.633 18.8584 34.2 17.2914 34.2 15.3584C34.2 13.4254 32.633 11.8584 30.7 11.8584C28.767 11.8584 27.2 13.4254 27.2 15.3584C27.2 17.2914 28.767 18.8584 30.7 18.8584Z" fill="black"/>
<path d="M0.799999 33.5585C0.799999 33.5585 7.6 29.8585 9 27.1585C10.4 24.4585 11 23.0585 12.1 22.4585C13.5 21.6585 15.2 21.9585 14.9 24.2585C14.6 26.5585 8.9 27.5585 7.5 29.0585" stroke="black" stroke-width="0.5" stroke-miterlimit="10" stroke-linecap="round"/>
<path d="M13.8 29.4585C13.8 29.4585 17.9 25.4585 20.4 23.5585C22 22.2585 21.5 21.3585 22.6 20.2585C23.4 19.4585 24.7 19.9585 24.5 21.4585C24.3 22.9585 20.5 23.1585 19.5 24.2585" stroke="black" stroke-width="0.5" stroke-miterlimit="10" stroke-linecap="round"/>
<path d="M12.6 35.9584C12.6 35.9584 16.2 33.9584 16.9 32.5584C17.6 31.1584 18 30.3584 18.6 30.0584C19.3 29.6584 20.2 29.7584 20.1 31.0584C20 32.3584 16.9 32.7584 16.2 33.5584" stroke="black" stroke-width="0.5" stroke-miterlimit="10" stroke-linecap="round"/>
</g>
<defs>
<clipPath id="clip0">
<rect width="44.8" height="35.4" fill="white" transform="translate(0.5 0.758423)"/>
</clipPath>
</defs>
</svg>
