<svg width="44" height="49" viewBox="0 0 44 49" fill="none" xmlns="http://www.w3.org/2000/svg">
<g clip-path="url(#clip0)">
<path d="M1 19.9585C1 19.9585 2.1 21.8585 2.3 22.9585C2.5 24.1585 2.9 26.1585 4 25.9585C5.1 25.7585 6.1 25.2585 5.7 24.3585C5.3 23.4585 3.1 21.7585 3.1 21.7585" stroke="black" stroke-miterlimit="10" stroke-linecap="round"/>
<path d="M3.39999 27.1586C3.39999 27.1586 5.09999 29.3586 5.19999 30.6586C5.29999 31.9586 5.09999 33.9586 5.69999 34.1586C6.29999 34.3586 8.49999 34.7586 7.89999 32.9586C7.29999 31.0586 5.89999 27.8586 5.59999 27.1586" stroke="black" stroke-miterlimit="10" stroke-linecap="round"/>
<path d="M6.39999 35.6586C6.39999 35.6586 11 37.7586 11.8 39.3586C12.6 40.9586 14.5 41.5586 15 40.1586C15.5 38.7586 13.9 38.3586 12.1 37.2586C10.3 36.1586 8.29999 34.9586 7.99999 33.5586" stroke="black" stroke-miterlimit="10" stroke-linecap="round"/>
<path d="M16.4 1.55859C16.4 1.55859 15.3 1.85859 14.8 3.15859C14.3 4.45859 13.8 4.95859 15.1 5.25859C16.4 5.45859 16.5 5.25859 16.4 4.65859C16.4 4.05859 16.5 2.85859 16.4 1.55859Z" stroke="black" stroke-miterlimit="10" stroke-linecap="round"/>
<path d="M14.4 6.35852C14.4 6.35852 14.8 7.55852 14.8 8.25852C14.8 8.95852 14.1 11.1585 13.8 11.8585C13.5 12.5585 13.8 14.5585 13.8 16.7585C13.8 18.9585 12.9 20.9585 13 22.0585C13.1 23.1585 14.8 23.7585 15.7 23.1585C16.6 22.5585 15.7 20.7585 15.7 18.7585C15.7 16.7585 15.7 13.8585 16.1 12.7585C16.5 11.6585 15.9 10.7585 16.1 9.65852C16.3 8.55852 16.7 6.45852 16.7 6.45852" stroke="black" stroke-miterlimit="10" stroke-linecap="round"/>
<path d="M14.9 38.8585C14.9 38.8585 15.5 37.6585 15.2 35.0585C15 32.4585 15.3 29.6585 14.2 27.7585C13.1 25.8585 12.9 23.8585 13.4 22.9585" stroke="black" stroke-miterlimit="10" stroke-linecap="round"/>
<path d="M15.9 23.4585C15.9 23.4585 16.7 24.2585 16.5 26.4585C16.4 28.6585 16.6 32.6585 17 34.2585C17.4 35.8585 19 37.3585 18.9 38.5585C18.8 39.7585 17.9 40.1585 16.5 40.2585" stroke="black" stroke-miterlimit="10" stroke-linecap="round"/>
<path d="M18.9 36.3586C18.9 36.3586 20.2 31.7586 20.1 29.7586C20 27.7586 18.9 24.8586 19.5 23.8586C20.1 22.9586 22.2 22.3586 22.3 24.3586C22.4 26.3586 21.6 31.8586 21.8 35.2586C22 38.6586 22.5 39.2586 21.2 39.8586C19.9 40.4586 19.3 40.2586 19.3 40.2586C19.3 40.2586 19.5 41.8586 18.9 43.4586" stroke="black" stroke-miterlimit="10" stroke-linecap="round"/>
<path d="M18.4 20.8585C18.4 20.8585 19 22.6585 20.6 22.8585C22.2 23.0585 21.1 21.1585 21.8 19.8585C22.5 18.4585 23.6 15.1585 24.3 14.0585C25.1 12.9585 25.3 11.1585 25.7 10.3585C26.1 9.45854 26.9 8.55854 26.5 8.15854C26.1 7.75854 25.1 7.45854 24.6 8.55854C24.1 9.65854 22.9 11.0585 22.8 11.7585C22.8 12.4585 22.2 14.4585 21.6 15.4585C21 16.4585 18 19.1585 18.4 20.8585Z" stroke="black" stroke-miterlimit="10" stroke-linecap="round"/>
<path d="M25.8 6.05854C25.8 6.05854 26 5.05854 26.7 4.25854C27.4 3.35854 27.9 2.05854 28.1 1.65854C28.3 1.25854 29.3 1.05854 29.4 2.05854C29.5 3.05854 29 3.95854 28.6 5.05854C28.2 6.15854 28.5 7.25854 27.6 7.25854C26.7 7.05854 25.7 7.05854 25.8 6.05854Z" stroke="black" stroke-miterlimit="10" stroke-linecap="round"/>
<path d="M22 37.2586C22 37.2586 24.8 33.6586 24.8 31.8586C24.8 30.0586 24 26.5586 24.8 25.7586C25.6 24.9586 27.8 24.9586 27.7 26.8586C27.6 28.7586 26.7 31.3586 26.7 32.2586C26.7 33.1586 25.8 35.0586 25.9 36.5586" stroke="black" stroke-miterlimit="10" stroke-linecap="round"/>
<path d="M25.8 24.3585C25.8 24.3585 25.2 23.9585 25.8 22.7585C26.4 21.6585 29.4 19.8585 29.9 17.8585C30.4 15.8585 30.4 14.8585 31.4 14.0585C32.4 13.2585 33.3 11.2585 33.8 10.1585C34.3 9.05852 35.2 8.75852 36.2 9.65852C37.2 10.5585 34.8 11.8585 34.5 12.5585C34.2 13.2585 33.5 15.4585 32.9 17.0585C32.3 18.6585 31.2 18.7585 30.1 20.5585C29 22.3585 29.9 24.9585 27.7 26.1585" stroke="black" stroke-miterlimit="10" stroke-linecap="round"/>
<path d="M34.9 7.65854C34.9 7.65854 36.2 7.15853 36.8 8.45853C37.1 6.95853 37.9 6.45853 38.1 5.75853C38.3 5.05853 37.5 4.25853 36.9 4.65853C36.2 5.15853 34.4 7.35853 34.9 7.65854Z" stroke="black" stroke-miterlimit="10" stroke-linecap="round"/>
<path d="M25.5 40.3585C25.5 40.3585 24.5 39.7585 25.1 38.8585C25.7 37.9585 28.1 34.9585 28.7 32.7585C29.3 30.5585 28.9 29.5585 30 29.0585C31.1 28.4585 32 27.4585 33.4 26.7585C34.7 26.1585 37.2 23.6585 38.1 22.9585C39 22.1585 39.8 22.4585 40.1 22.8585C40.3 23.2585 39.2 24.2585 38.1 25.2585C37.1 26.2585 33.7 29.9585 32.8 30.4585C31.9 30.9585 31.7 30.4585 30.2 33.5585C28.7 36.6585 28.1 40.2585 27.5 40.2585C27.5 40.2585 26.5 41.0585 27.1 41.5585C27.7 42.0585 28.6 43.6585 27.8 44.9585C27 46.2585 26.1 47.2585 26.5 48.2585" stroke="black" stroke-miterlimit="10" stroke-linecap="round"/>
<path d="M31.4 29.8586C31.4 29.8586 30.3 29.5586 30.7 28.6586" stroke="black" stroke-miterlimit="10" stroke-linecap="round"/>
<path d="M39.5 22.1585C39.5 22.1585 40.1 20.7585 41.2 20.0585C42.3 19.3585 43.2 18.8585 43.3 19.3585C43.3 19.8585 41.9 21.2585 41.4 22.1585C40.9 23.0585 39.6 23.6585 39.6 23.6585" stroke="black" stroke-miterlimit="10" stroke-linecap="round"/>
<path d="M13.2 40.9585C13.2 40.9585 13.5 42.5585 14.1 43.0585C14.7 43.6585 15.6 44.0585 15.3 45.4585C15 46.8585 15.1 47.7585 15.1 47.7585" stroke="black" stroke-miterlimit="10" stroke-linecap="round"/>
<path d="M15.4 43.6586C15.4 43.6586 17.3 42.2586 17.9 42.8586C18.5 43.5586 20.2 45.6586 20.9 45.9586C21.6 46.2586 25 43.7586 27.1 41.6586" stroke="black" stroke-miterlimit="10" stroke-linecap="round"/>
<path d="M16.2 40.2585C16.2 40.2585 16.9 42.2585 16.6 42.6585" stroke="black" stroke-miterlimit="10" stroke-linecap="round"/>
<path d="M22.5 45.3585C22.5 45.3585 22.6 42.6585 22.3 41.6585C22 40.6585 24.9 39.4585 24.9 39.4585" stroke="black" stroke-miterlimit="10" stroke-linecap="round"/>
<path d="M23.6 44.5586C23.6 44.5586 26.1 45.2586 26.6 47.0586" stroke="black" stroke-miterlimit="10" stroke-linecap="round"/>
<path d="M25.6 42.9585C25.6 42.9585 27.4 43.8585 27.6 45.2585" stroke="black" stroke-miterlimit="10" stroke-linecap="round"/>
</g>
<defs>
<clipPath id="clip0">
<rect width="43.3" height="48.1" fill="white" transform="translate(0.5 0.758545)"/>
</clipPath>
</defs>
</svg>
