<svg width="40" height="52" viewBox="0 0 40 52" fill="none" xmlns="http://www.w3.org/2000/svg">
<g clip-path="url(#clip0)">
<path d="M35 32.1587C35.7 32.6587 35.6 33.6587 35.5 34.8587C35.3 35.8587 35.7 36.9587 35.8 38.0587C35.9 39.8587 35.3 40.4587 33.6 40.4587C31.8 40.4587 29.9 40.4587 28.1 40.4587C27.3 40.4587 26.9 40.7587 26.8 41.5587C26.4 44.2587 25.9 46.8587 25.5 49.4587C25.3 50.6587 25.2 50.7587 24.1 50.1587C18.7 47.5587 13.2 44.8587 7.8 42.3587C6.8 41.9587 6.5 41.5587 6.5 40.6587C6.5 38.0587 6.5 35.5587 6.5 32.9587C6.5 32.1587 6.2 31.3587 5.8 30.7587C4.6 28.3587 3.1 26.1587 2.2 23.6587C1.4 21.5587 1 19.2587 0.9 17.0587C0.9 12.2587 1.9 7.75871 6 4.65871C8.7 2.65871 11.8 1.35871 15.3 1.25871C17.5 1.15871 19.7 1.25871 21.9 1.35871C27.1 1.75871 30.7 4.55871 33.3 8.95871C34.6 11.1587 35 13.6587 35.3 15.9587C35.5 17.9587 36.3 19.5587 37.2 21.2587C37.8 22.5587 38.5 23.8587 39 25.1587C39.6 26.7587 39.2 27.2587 37.6 27.3587C36.1 27.3587 36.1 27.5587 36 28.9587C35.8 30.0587 35.4 30.9587 35 32.1587Z" stroke="black" stroke-miterlimit="10" stroke-linecap="round"/>
<path d="M23.8 11.9587C24 9.55871 22.3 7.35871 19.9 7.15871C18 6.95871 16.3 8.05871 15.5 9.65871C15.3 9.45871 15 9.35871 14.7 9.25871C13.2 8.75871 11.5 9.55871 11 11.0587C10.9 11.2587 10.9 11.4587 10.9 11.5587C8.8 11.9587 7.2 13.7587 7.2 15.9587C7.2 18.4587 9.2 20.4587 11.7 20.4587H21.7C24.2 20.4587 26.2 18.4587 26.2 15.9587C26.3 14.2587 25.3 12.6587 23.8 11.9587Z" stroke="black" stroke-miterlimit="10" stroke-linecap="round"/>
<path d="M18.4 12.1587L14.7 16.6587C14.4 16.9587 14.7 17.4587 15.1 17.4587H18.4C18.8 17.4587 19 17.8587 18.8 18.2587L13.9 26.6587" stroke="black" stroke-miterlimit="10" stroke-linecap="round"/>
</g>
<defs>
<clipPath id="clip0">
<rect width="39.2" height="50.3" fill="white" transform="translate(0.5 0.758667)"/>
</clipPath>
</defs>
</svg>
