<svg width="41" height="48" viewBox="0 0 41 48" fill="none" xmlns="http://www.w3.org/2000/svg">
<g clip-path="url(#clip0)">
<path d="M40.5 20.9584L37 22.1584C36.5 22.3584 36.4 23.1584 36.8 23.3584L38.2 24.2584C38.6 24.4584 38.5 25.1584 38.1 25.4584L31.8 28.0584" stroke="black" stroke-width="0.8045" stroke-miterlimit="10" stroke-linecap="round"/>
<path d="M1 19.2584L3.1 20.3584C3.4 20.5584 3.3 20.9584 3 21.1584L1.8 21.5584C1.5 21.6584 1.4 22.0584 1.7 22.2584L5.5 24.4584" stroke="black" stroke-miterlimit="10" stroke-linecap="round"/>
<path d="M10.9 46.5584C10.9 46.5584 10.6 40.4584 8.80003 36.0584C7.00003 31.6584 6.30003 27.5584 8.40003 26.2584C10.5 24.9584 11.4 23.7584 15.3 24.6584C19.2 25.5584 20.7 27.7584 23.7 27.3584C26.7 26.9584 29.1 26.8584 29.5 29.3584C30.2 33.4584 30.6 34.4584 27.5 37.2584C24.2 40.1584 22.4 43.5584 21.2 46.5584" stroke="black" stroke-miterlimit="10" stroke-linecap="round"/>
<path d="M26.1 38.7584C26.1 38.7584 27.3 43.5584 27.2 45.1584" stroke="black" stroke-miterlimit="10" stroke-linecap="round"/>
<path d="M30.1 30.9584C30.1 30.9584 33.6 31.7584 33.8 33.4584C34 35.1584 34.8 36.8584 32.4 40.0584C30 43.2584 30.1 45.7584 30.1 45.7584" stroke="black" stroke-miterlimit="10" stroke-linecap="round"/>
<path d="M12.7 7.25842C12.7 7.25842 9.00001 7.85842 7.50001 11.5584C6.20001 14.6584 2.70001 17.4584 10.4 24.3584" stroke="black" stroke-miterlimit="10" stroke-linecap="round"/>
<path d="M23.7 1.25842C23.7 1.25842 27.3 3.75842 28.7 6.35842C30.1 8.95842 31.7 12.9584 33.3 14.2584C34.5 15.2584 33.2 18.6584 32.5 20.3584C32.2 20.9584 32.1 21.5584 32 22.1584C31.8 23.4584 30 25.1584 27.7 25.3584C24.5 25.5584 22.2 25.5584 20.9 22.8584C19.6 20.1584 18.8 21.8584 18.8 21.8584L16.5 24.3584" stroke="black" stroke-miterlimit="10" stroke-linecap="round"/>
<path d="M12.7 12.6584C13.5 13.8584 14.3 15.0584 15 16.3584" stroke="black" stroke-width="0.5" stroke-miterlimit="10" stroke-linecap="round"/>
<path d="M22.6 21.8584C23 22.0584 23.2 22.3584 23.4 22.6584" stroke="black" stroke-width="0.5" stroke-miterlimit="10" stroke-linecap="round"/>
<path d="M10.1 17.4584C10.3 17.7584 10.4 18.3584 10.5 19.0584" stroke="black" stroke-width="0.5" stroke-miterlimit="10" stroke-linecap="round"/>
<path d="M25 17.8584C25.6 19.1584 26.4 20.3584 27.2 21.5584" stroke="black" stroke-width="0.5" stroke-miterlimit="10" stroke-linecap="round"/>
<path d="M11.3 34.6584C10.5 34.0584 9.90001 33.1584 9.60001 32.2584" stroke="black" stroke-width="0.5" stroke-miterlimit="10" stroke-linecap="round"/>
<path d="M11.2 27.4584C11.4 27.0584 11.8 26.6584 12.3 26.6584" stroke="black" stroke-width="0.5" stroke-miterlimit="10" stroke-linecap="round"/>
<path d="M27.1 33.5585C26.8 34.3585 26.2 35.0585 25.4 35.4585" stroke="black" stroke-width="0.5" stroke-miterlimit="10" stroke-linecap="round"/>
<path d="M25.9 29.6584C26 29.7584 26.1 29.8584 26.2 30.0584" stroke="black" stroke-width="0.5" stroke-miterlimit="10" stroke-linecap="round"/>
<path d="M28.7 20.0584C28.8 19.7584 29 19.5584 29.3 19.4584" stroke="black" stroke-width="0.5" stroke-miterlimit="10" stroke-linecap="round"/>
<path d="M30.9 17.5584C30.8 17.3584 30.6 17.2584 30.4 17.2584" stroke="black" stroke-width="0.5" stroke-miterlimit="10" stroke-linecap="round"/>
<path d="M13.2 21.8585C13.1 21.6585 12.9 21.5585 12.7 21.5585" stroke="black" stroke-width="0.5" stroke-miterlimit="10" stroke-linecap="round"/>
</g>
<defs>
<clipPath id="clip0">
<rect width="40.4" height="46.3" fill="white" transform="translate(0.5 0.758423)"/>
</clipPath>
</defs>
</svg>
