<svg width="44" height="37" viewBox="0 0 44 37" fill="none" xmlns="http://www.w3.org/2000/svg">
<g clip-path="url(#clip0)">
<path d="M21.2 8.55857C20.9 8.45857 9.4 8.15857 7.3 9.25857C5.2 10.3586 1.1 13.8586 1 22.1586C0.900002 30.4586 2.9 34.1586 9.2 32.2586C15.5 30.3586 23.2 26.9586 23.9 24.7586C24.6 22.5586 24.4 13.2586 23.9 11.0586" stroke="black" stroke-miterlimit="10" stroke-linecap="round"/>
<path d="M26.1 11.4586C26.1 11.4586 25.1 24.2586 26.8 24.2586C28.5 24.2586 38.5 17.9586 40.3 16.1586C42.1 14.3586 44.8 9.65859 40.3 8.95859C35.8 8.25859 29.1 8.25859 28.1 8.95859" stroke="black" stroke-miterlimit="10" stroke-linecap="round"/>
<path d="M6.90001 18.0586C6.90001 18.0586 5.60001 11.3586 13.4 11.9586" stroke="black" stroke-miterlimit="10" stroke-linecap="round"/>
<path d="M17 12.4585C17.3314 12.4585 17.6 12.1899 17.6 11.8585C17.6 11.5272 17.3314 11.2585 17 11.2585C16.6686 11.2585 16.4 11.5272 16.4 11.8585C16.4 12.1899 16.6686 12.4585 17 12.4585Z" fill="black"/>
<path d="M6.79999 34.6586C6.79999 34.6586 7.09999 36.9586 9.39999 36.1586C11.7 35.2586 13.3 33.2586 12.4 32.8586C11.5 32.4586 7.09999 32.7586 6.79999 34.6586Z" stroke="black" stroke-miterlimit="10" stroke-linecap="round"/>
<path d="M21.7 1.65857C21.7 1.65857 22.7 5.55857 21.7 6.65857" stroke="black" stroke-miterlimit="10" stroke-linecap="round"/>
<path d="M25.8 1.25854C25.8 1.25854 24.7 5.35855 26.4 7.55855" stroke="black" stroke-miterlimit="10" stroke-linecap="round"/>
</g>
<defs>
<clipPath id="clip0">
<rect width="42.7" height="36.1" fill="white" transform="translate(0.5 0.758545)"/>
</clipPath>
</defs>
</svg>
