<svg width="29" height="48" viewBox="0 0 29 48" fill="none" xmlns="http://www.w3.org/2000/svg">
<g clip-path="url(#clip0)">
<path d="M12.8 1.25867C12.8 1.25867 8.2 3.65867 7.4 7.05867C6.6 10.4587 7 12.5587 6.7 13.7587C6.4 14.9587 1.7 21.5587 1.1 22.9587C0.5 24.3587 3 25.4587 3.8 25.7587C4.6 26.0587 3.5 27.9587 3.8 28.5587C4 28.9587 4.4 28.8587 5.5 29.7587C3.7 31.3587 4 31.9587 4.6 32.3587C5.2 32.7587 6.3 35.5587 5.9 37.4587C5.5 39.3587 7.2 42.0587 10.6 41.6587C14 41.3587 16.2 40.0587 18.7 47.1587" stroke="black" stroke-miterlimit="10" stroke-linecap="round"/>
<path d="M8.7 28.3586C8.7 28.3586 11.2 27.3586 13.9 27.3586C16.6 27.3586 17.6 27.8586 17.6 27.8586" stroke="black" stroke-miterlimit="10" stroke-linecap="round"/>
<path d="M9 20.8587C9 20.8587 10 18.7587 12.8 18.7587C15.6 18.7587 18.4 18.6587 19.8 19.5587C21.2 20.4587 23.4 23.0587 23.4 23.0587" stroke="black" stroke-miterlimit="10" stroke-linecap="round"/>
<path d="M10.6 38.0586C10.6 38.0586 16.5 36.6586 18.7 38.3586C20.9 40.0586 21.9 44.3586 22.2 46.2586" stroke="black" stroke-miterlimit="10" stroke-linecap="round"/>
<path d="M23.6 32.3586C23.6 32.3586 23.4 34.2586 24.6 35.3586C25.7 36.5586 26.2 37.9586 26.4 39.9586C26.6 41.9586 27.7 43.4586 27.7 43.4586" stroke="black" stroke-miterlimit="10" stroke-linecap="round"/>
<path d="M11.5 32.5587C12.2732 32.5587 12.9 31.9319 12.9 31.1587C12.9 30.3855 12.2732 29.7587 11.5 29.7587C10.7268 29.7587 10.1 30.3855 10.1 31.1587C10.1 31.9319 10.7268 32.5587 11.5 32.5587Z" stroke="black" stroke-width="0.5" stroke-miterlimit="10" stroke-linecap="round"/>
<path d="M15.7 32.5587C16.4732 32.5587 17.1 31.9319 17.1 31.1587C17.1 30.3855 16.4732 29.7587 15.7 29.7587C14.9268 29.7587 14.3 30.3855 14.3 31.1587C14.3 31.9319 14.9268 32.5587 15.7 32.5587Z" stroke="black" stroke-width="0.5" stroke-miterlimit="10" stroke-linecap="round"/>
<path d="M13.3 36.0587C14.0732 36.0587 14.7 35.4319 14.7 34.6587C14.7 33.8855 14.0732 33.2587 13.3 33.2587C12.5268 33.2587 11.9 33.8855 11.9 34.6587C11.9 35.4319 12.5268 36.0587 13.3 36.0587Z" stroke="black" stroke-width="0.5" stroke-miterlimit="10" stroke-linecap="round"/>
<path d="M17.5 36.2586C18.2732 36.2586 18.9 35.6318 18.9 34.8586C18.9 34.0854 18.2732 33.4586 17.5 33.4586C16.7268 33.4586 16.1 34.0854 16.1 34.8586C16.1 35.6318 16.7268 36.2586 17.5 36.2586Z" stroke="black" stroke-width="0.5" stroke-miterlimit="10" stroke-linecap="round"/>
</g>
<defs>
<clipPath id="clip0">
<rect width="27.6" height="47" fill="white" transform="translate(0.5 0.758667)"/>
</clipPath>
</defs>
</svg>
