<svg width="52" height="37" viewBox="0 0 52 37" fill="none" xmlns="http://www.w3.org/2000/svg">
<g clip-path="url(#clip0)">
<path d="M12 7.25859C12.3 7.15859 12.4 6.75859 12.1 6.55859C10.6 5.85859 8.09999 4.95859 5.89999 5.15859C2.59999 5.55859 0.89999 6.15859 0.99999 9.05859C1.09999 11.9586 4.89999 11.0586 6.79999 10.0586C8.19999 9.35859 10.2 7.65859 12 7.25859Z" stroke="black" stroke-miterlimit="10" stroke-linecap="round"/>
<path d="M19.8 1.25854C19.8 1.25854 17.8 3.15855 17.4 7.05855C17.1 10.9585 17.4 14.2585 17.4 14.2585" stroke="black" stroke-miterlimit="10" stroke-linecap="round"/>
<path d="M17.3 11.9585C17.3 11.9585 16.2 11.2585 15.6 9.85851C15 8.45851 13.5 6.75851 12 6.95851" stroke="black" stroke-miterlimit="10" stroke-linecap="round"/>
<path d="M17.3 6.6585C17.3 6.6585 16.6 4.1585 14.7 2.9585" stroke="black" stroke-miterlimit="10" stroke-linecap="round"/>
<path d="M10.1 15.5586C10.1 15.5586 13 15.1586 13.9 15.7586C14.8 16.3586 14.6 17.3586 14.1 17.5586C13.7 17.7586 11.6 17.4586 10.1 15.5586Z" fill="black"/>
<path d="M9.3 18.0586C9.3 18.0586 13.2 19.1586 13.8 19.6586C13.5 22.4586 13.2 27.6586 16 29.4586C18.8 31.2586 22 31.9586 24.2 28.9586C26.4 25.9586 26.3 23.1586 29.6 22.4586C32.9 21.7586 33.9 24.4586 34.9 29.6586C35.9 34.8586 34.4 35.5586 33.4 35.8586C32.4 36.1586 31 35.9586 30.3 32.7586C29.6 29.5586 29.4 27.7586 29.1 27.7586C28.8 27.6586 28.9 30.1586 28.2 31.5586C27.5 32.9586 24.3 36.3586 19.3 35.9586C14.3 35.5586 9.4 33.3586 8.5 27.7586C7.6 22.1586 9.3 18.0586 9.3 18.0586Z" stroke="black" stroke-miterlimit="10" stroke-linecap="round"/>
<path d="M28.9 18.5585C33.6 17.6585 43.9 14.1585 46.6 11.4585C48.3 10.0585 48.4 9.75851 47.7 9.85851C47 9.95851 40.3 13.6585 37.9 14.2585C35.5 14.8585 30 16.4585 23.4 18.0585C19.5 18.9585 17.3 20.4585 16.3 21.6585" stroke="black" stroke-width="0.5" stroke-miterlimit="10" stroke-linecap="round"/>
<path d="M16.3 21.6586C16.3 21.7586 16.3 21.8586 16.2 21.9586C16.1 22.0586 15.9 22.0586 15.8 21.9586C15.7 21.8586 15.5 21.7586 15.5 21.6586C15.5 21.5586 15.5 21.4586 15.5 21.4586V21.3586L15.6 20.7586C15.7 20.3586 15.7 19.9586 15.8 19.4586C16 18.6586 16.2 17.7586 16.6 16.9586C17 16.1586 17.6 15.4586 18.3 14.8586C19.1 14.2586 20 14.0586 20.8 13.8586C22.5 13.4586 24.2 13.3586 25.8 13.2586C27.4 13.1586 29.1 13.0586 30.7 12.8586C32.3 12.6586 33.8 12.2586 35.4 11.6586C37 11.1586 38.5 10.5586 40.1 10.0586C41.7 9.55857 43.2 8.95857 44.7 8.35857L47 7.45857C47.7 7.15857 48.6 6.85857 49.1 6.45857L49.2 6.35857C49.5 6.25857 49.9 6.15857 50.4 6.15857C50.6 6.15857 51 6.15857 51.3 6.55857C51.5 6.95857 51.5 7.25857 51.4 7.45857C51.3 7.95857 51.2 8.15857 51.2 8.55857C51.1 8.85857 51 9.25857 50.9 9.55857C50.4 10.8586 49.6 12.0586 48.6 13.0586C47.6 14.0586 46.4 14.8586 45.3 15.5586C44.1 16.2586 42.9 16.8586 41.7 17.4586C39.3 18.6586 36.8 19.6586 34.1 20.3586C33.5 20.5586 32.7 20.6586 32.1 20.6586C31.4 20.7586 30.8 20.7586 30.1 20.8586C28.8 21.0586 27.5 21.3586 26.5 22.0586C26 22.3586 25.6 22.8586 25.3 23.3586C25 23.9586 24.8 24.5586 24.5 25.1586C24 26.3586 23.4 27.6586 22.4 28.6586C21.9 29.1586 21.3 29.5586 20.5 29.7586C19.8 29.9586 19 29.8586 18.3 29.5586C17 29.0586 15.8 27.8586 15.6 26.3586C15.5 25.6586 15.7 24.8586 16.1 24.2586C16.5 23.6586 17 23.1586 17.5 22.7586C18.6 21.8586 19.7 21.1586 21 20.6586C23.5 19.5586 26.1 18.8586 28.7 18.3586C28.8 18.3586 29 18.4586 29 18.5586C29 18.6586 28.9 18.8586 28.8 18.8586C26.2 19.3586 23.6 20.0586 21.2 21.1586C20 21.7586 18.9 22.3586 17.9 23.2586C17.4 23.6586 16.9 24.1586 16.6 24.6586C16.3 25.1586 16.1 25.7586 16.2 26.3586C16.3 27.5586 17.3 28.5586 18.5 28.9586C19.1 29.1586 19.7 29.2586 20.3 29.0586C20.9 28.9586 21.4 28.5586 21.8 28.1586C22.6 27.2586 23.2 26.0586 23.7 24.8586C24 24.2586 24.2 23.6586 24.5 22.9586C24.8 22.2586 25.4 21.7586 26 21.3586C27.2 20.5586 28.6 20.2586 29.9 19.9586C30.6 19.8586 31.2 19.7586 31.9 19.6586C32.6 19.6586 33.2 19.5586 33.8 19.3586C36.3 18.6586 38.8 17.6586 41.1 16.4586C42.3 15.8586 43.4 15.2586 44.6 14.5586C45.7 13.8586 46.8 13.1586 47.7 12.2586C48.6 11.3586 49.3 10.2586 49.7 9.15857C49.8 8.85857 49.9 8.55857 50 8.25857C50.1 7.95857 50.2 7.55857 50.2 7.35857C50.2 7.25857 50.2 7.25857 50.2 7.35857C50.3 7.45857 50.3 7.45857 50.2 7.45857C50 7.45857 49.7 7.55857 49.4 7.65857L49.6 7.55857C48.8 8.05857 48 8.35857 47.3 8.75857C46.5 9.05857 45.8 9.35857 45 9.65857C43.5 10.2586 41.9 10.8586 40.4 11.4586C38.8 12.0586 37.3 12.5586 35.7 13.0586C34.9 13.3586 34.1 13.5586 33.3 13.7586C32.5 13.9586 31.6 14.1586 30.8 14.2586C27.5 14.7586 24.1 14.5586 21 15.1586C20.2 15.3586 19.5 15.5586 18.9 15.9586C18.3 16.3586 17.8 16.9586 17.5 17.5586C17.1 18.2586 16.9 18.9586 16.7 19.7586C16.6 20.1586 16.5 20.5586 16.5 20.9586L16.4 21.5586V21.6586V21.5586C16.4 21.4586 16.3 21.4586 16.3 21.4586C16.1 21.2586 16 21.5586 16.3 21.6586C16.2 21.6586 16.3 21.6586 16.3 21.6586Z" fill="black"/>
</g>
<defs>
<clipPath id="clip0">
<rect width="51" height="35.7" fill="white" transform="translate(0.5 0.758545)"/>
</clipPath>
</defs>
</svg>
