<svg width="106" height="17" viewBox="0 0 106 17" fill="none" xmlns="http://www.w3.org/2000/svg">
<path d="M3.22795 5.44C3.22795 5.02 3.16729 4.684 3.04595 4.432C2.93395 4.17067 2.66795 4.04 2.24795 4.04H2.10795V3.76H9.03795V13H7.77795V4.32H4.27795V5.44C4.27795 7.036 4.20329 8.33333 4.05395 9.332C3.91395 10.3307 3.71795 11.1147 3.46595 11.684C3.22329 12.244 2.93862 12.6267 2.61195 12.832C2.29462 13.0373 1.96329 13.14 1.61795 13.14C1.51529 13.14 1.39862 13.126 1.26795 13.098C1.13729 13.0793 1.02062 13.0513 0.917953 13.014V12.664C1.12329 12.6547 1.32395 12.6127 1.51995 12.538C1.71595 12.454 1.89795 12.314 2.06595 12.118C2.23395 11.922 2.38795 11.656 2.52795 11.32C2.67729 10.984 2.79862 10.5547 2.89195 10.032C2.99462 9.5 3.07395 8.86067 3.12995 8.114C3.19529 7.358 3.22795 6.46667 3.22795 5.44ZM15.6481 7.68L12.7081 13H11.4481V8.1C11.4481 7.68 11.3875 7.344 11.2661 7.092C11.1541 6.83067 10.8881 6.7 10.4681 6.7H10.2581V6.42H11.4481C11.6908 6.42 11.8915 6.44333 12.0501 6.49C12.2181 6.52733 12.3488 6.61133 12.4421 6.742C12.5448 6.86333 12.6148 7.036 12.6521 7.26C12.6895 7.47467 12.7081 7.75467 12.7081 8.1V11.74L15.6481 6.42H16.9081V13H15.6481V7.68ZM21.6241 6.28C22.1187 6.28 22.5341 6.31733 22.8701 6.392C23.2154 6.46667 23.4767 6.59267 23.6541 6.77C23.7381 6.854 23.8034 6.94733 23.8501 7.05C23.9061 7.15267 23.9434 7.274 23.9621 7.414C23.9807 7.554 23.9901 7.722 23.9901 7.918C23.9994 8.10467 24.0041 8.32867 24.0041 8.59H23.7241C23.6867 7.99267 23.4954 7.554 23.1501 7.274C22.8141 6.98467 22.3987 6.84 21.9041 6.84C21.5494 6.84 21.2461 6.91467 20.9941 7.064C20.7421 7.21333 20.5321 7.41867 20.3641 7.68C20.1961 7.932 20.0701 8.23533 19.9861 8.59C19.9114 8.93533 19.8741 9.30867 19.8741 9.71C19.8741 10.1113 19.9114 10.4893 19.9861 10.844C20.0701 11.1893 20.1961 11.4927 20.3641 11.754C20.5321 12.006 20.7421 12.2067 20.9941 12.356C21.2461 12.5053 21.5494 12.58 21.9041 12.58C22.3987 12.58 22.8001 12.482 23.1081 12.286C23.4161 12.09 23.6914 11.8147 23.9341 11.46L24.2141 11.67C23.8967 12.202 23.5234 12.58 23.0941 12.804C22.6741 13.028 22.1841 13.14 21.6241 13.14C21.1014 13.14 20.6441 13.0513 20.2521 12.874C19.8694 12.6873 19.5521 12.44 19.3001 12.132C19.0481 11.824 18.8567 11.4647 18.7261 11.054C18.6047 10.634 18.5441 10.186 18.5441 9.71C18.5441 9.234 18.6047 8.79067 18.7261 8.38C18.8567 7.96 19.0481 7.596 19.3001 7.288C19.5521 6.98 19.8694 6.73733 20.2521 6.56C20.6441 6.37333 21.1014 6.28 21.6241 6.28ZM26.8376 6.98C26.4176 6.98 26.0676 7.10133 25.7876 7.344C25.5076 7.57733 25.3676 7.92267 25.3676 8.38H25.0876V7.54C25.0876 7.4 25.1016 7.26467 25.1296 7.134C25.167 6.994 25.223 6.87267 25.2976 6.77C25.3723 6.66733 25.475 6.58333 25.6056 6.518C25.7456 6.45267 25.923 6.42 26.1376 6.42H31.1076V6.98H28.7976V13H27.5376V6.98H26.8376ZM35.8485 9.78H35.4285C34.7285 9.78 34.1778 9.91067 33.7765 10.172C33.3845 10.424 33.1885 10.76 33.1885 11.18C33.1885 11.404 33.2258 11.6 33.3005 11.768C33.3752 11.936 33.4732 12.076 33.5945 12.188C33.7158 12.3 33.8558 12.384 34.0145 12.44C34.1732 12.4867 34.3412 12.51 34.5185 12.51C34.8638 12.51 35.1345 12.426 35.3305 12.258C35.5358 12.0807 35.7085 11.8847 35.8485 11.67V9.78ZM36.4085 13L35.9185 12.37H35.8485C35.7085 12.5473 35.4798 12.72 35.1625 12.888C34.8452 13.056 34.4205 13.14 33.8885 13.14C33.6925 13.14 33.4778 13.1073 33.2445 13.042C33.0112 12.986 32.7918 12.8833 32.5865 12.734C32.3812 12.5847 32.2085 12.384 32.0685 12.132C31.9285 11.88 31.8585 11.5627 31.8585 11.18C31.8585 10.7973 31.9565 10.48 32.1525 10.228C32.3485 9.976 32.6098 9.77533 32.9365 9.626C33.2632 9.47667 33.6412 9.374 34.0705 9.318C34.4998 9.25267 34.9525 9.22 35.4285 9.22H35.8485C35.8485 8.73467 35.8112 8.338 35.7365 8.03C35.6618 7.71267 35.5592 7.47 35.4285 7.302C35.2978 7.12467 35.1392 7.00333 34.9525 6.938C34.7752 6.87267 34.5838 6.84 34.3785 6.84C33.9865 6.84 33.6552 6.924 33.3845 7.092C33.1232 7.26 32.9412 7.57267 32.8385 8.03H32.2085C32.2085 7.78733 32.2225 7.56333 32.2505 7.358C32.2785 7.14333 32.3812 6.94733 32.5585 6.77C32.6425 6.686 32.7592 6.61133 32.9085 6.546C33.0672 6.48067 33.2398 6.42933 33.4265 6.392C33.6132 6.35467 33.8092 6.32667 34.0145 6.308C34.2292 6.28933 34.4438 6.28 34.6585 6.28C34.9758 6.28 35.2792 6.31733 35.5685 6.392C35.8672 6.45733 36.1285 6.59733 36.3525 6.812C36.5858 7.01733 36.7678 7.316 36.8985 7.708C37.0385 8.09067 37.1085 8.59467 37.1085 9.22V13H36.4085ZM43.4567 7.68L40.5167 13H39.2567V8.1C39.2567 7.68 39.1961 7.344 39.0747 7.092C38.9627 6.83067 38.6967 6.7 38.2767 6.7H38.0667V6.42H39.2567C39.4994 6.42 39.7001 6.44333 39.8587 6.49C40.0267 6.52733 40.1574 6.61133 40.2507 6.742C40.3534 6.86333 40.4234 7.036 40.4607 7.26C40.4981 7.47467 40.5167 7.75467 40.5167 8.1V11.74L43.4567 6.42H44.7167V13H43.4567V7.68ZM41.9867 4.936C42.3787 4.936 42.6867 4.88933 42.9107 4.796C43.1441 4.69333 43.3494 4.55333 43.5267 4.376L43.8067 4.586C43.6294 4.90333 43.3961 5.16933 43.1067 5.384C42.8174 5.59867 42.4441 5.706 41.9867 5.706C41.5294 5.706 41.1561 5.59867 40.8667 5.384C40.5774 5.16933 40.3441 4.90333 40.1667 4.586L40.4467 4.376C40.6241 4.55333 40.8247 4.69333 41.0487 4.796C41.2821 4.88933 41.5947 4.936 41.9867 4.936ZM47.8787 6.98C47.4587 6.98 47.1087 7.10133 46.8287 7.344C46.5487 7.57733 46.4087 7.92267 46.4087 8.38H46.1287V7.54C46.1287 7.4 46.1427 7.26467 46.1707 7.134C46.208 6.994 46.264 6.87267 46.3387 6.77C46.4133 6.66733 46.516 6.58333 46.6467 6.518C46.7867 6.45267 46.964 6.42 47.1787 6.42H52.1487V6.98H49.8387V13H48.5787V6.98H47.8787ZM58.3641 9.92H54.1221C54.1221 10.3027 54.1641 10.6573 54.2481 10.984C54.3321 11.3107 54.4534 11.5953 54.6121 11.838C54.7801 12.0713 54.9808 12.2533 55.2141 12.384C55.4474 12.5147 55.7134 12.58 56.0121 12.58C56.4694 12.58 56.8474 12.482 57.1461 12.286C57.4541 12.09 57.7294 11.8147 57.9721 11.46L58.2521 11.67C57.9348 12.202 57.5661 12.58 57.1461 12.804C56.7354 13.028 56.2641 13.14 55.7321 13.14C55.2374 13.14 54.8081 13.0513 54.4441 12.874C54.0801 12.6873 53.7721 12.44 53.5201 12.132C53.2774 11.824 53.0954 11.4647 52.9741 11.054C52.8528 10.634 52.7921 10.186 52.7921 9.71C52.7921 9.234 52.8528 8.79067 52.9741 8.38C53.1048 7.96 53.2914 7.596 53.5341 7.288C53.7768 6.98 54.0708 6.73733 54.4161 6.56C54.7614 6.37333 55.1534 6.28 55.5921 6.28C56.5441 6.28 57.2488 6.546 57.7061 7.078C58.1634 7.61 58.3921 8.37067 58.3921 9.36L58.3641 9.92ZM57.0621 9.36C57.0621 8.548 56.9408 7.92733 56.6981 7.498C56.4554 7.05933 56.0868 6.84 55.5921 6.84C55.3774 6.84 55.1814 6.90533 55.0041 7.036C54.8268 7.15733 54.6728 7.33 54.5421 7.554C54.4114 7.778 54.3088 8.044 54.2341 8.352C54.1594 8.66 54.1221 8.996 54.1221 9.36H57.0621Z" fill="#A6ABBD"/>
<path d="M105.354 10.3536C105.549 10.1583 105.549 9.84171 105.354 9.64645L102.172 6.46447C101.976 6.2692 101.66 6.2692 101.464 6.46447C101.269 6.65973 101.269 6.97631 101.464 7.17157L104.293 10L101.464 12.8284C101.269 13.0237 101.269 13.3403 101.464 13.5355C101.66 13.7308 101.976 13.7308 102.172 13.5355L105.354 10.3536ZM65 10.5H105V9.5H65V10.5Z" fill="#A6ABBD"/>
</svg>
