<svg width="12" height="23" viewBox="0 0 12 23" fill="none" xmlns="http://www.w3.org/2000/svg">
<path d="M3.24709 9.26049H3.99709V8.51049V6.11818C3.99709 4.69537 4.431 3.59599 5.13113 2.85803C5.82737 2.12419 6.85079 1.67968 8.16901 1.67955C8.16921 1.67955 8.16941 1.67955 8.16961 1.67955L10.499 1.68339V4.26241L9.03779 4.26294C9.0377 4.26294 9.03761 4.26294 9.03752 4.26294C8.35601 4.26298 7.70475 4.3926 7.27438 4.89334C6.86877 5.36527 6.8256 5.98931 6.8256 6.4825V8.51049V9.26049H7.5756H10.3742L10.3732 12.0867H7.5756H6.8256V12.8367V21.2629H3.99709V12.8367V12.0867H3.24709H0.902527V9.26049H3.24709ZM10.8307 4.26229H10.8305H10.8307Z" fill="#C60000" stroke="#C60000" stroke-width="1.5"/>
</svg>
