<svg viewBox="0 0 1440 726" fill="none" xmlns="http://www.w3.org/2000/svg">
<g opacity="0.64">
<path d="M1717.6 1.09218C1650.91 59.0911 1314.05 169.914 1116.15 169.914C868.777 169.914 495.295 1.09207 327.956 1.09206C194.084 1.09205 39.5579 323.213 -26.1248 397.598" stroke="#F1F1F1" stroke-linecap="round" stroke-linejoin="round"/>
<path d="M1717.6 700.899C1644.9 700.499 1524.09 689.751 1422.49 664.695C1309.1 639.64 1151.81 586.466 999.623 620.569C606.046 730.367 86.0603 710.571 -31.6681 724.832" stroke="#FCCFCF" stroke-opacity="0.5"/>
<path d="M1717.6 657.161C1645.28 660.411 1510.96 657.261 1403.34 633.772C1281.58 610.282 1110.78 549.88 957.643 581.852C580.298 684.788 83.154 686.361 -31.3216 704.38" stroke="#FBD1D1" stroke-opacity="0.6"/>
<path d="M1717.6 613.423C1645.65 620.323 1497.84 624.772 1384.19 602.848C1254.06 580.924 1069.75 513.294 915.664 543.135C554.551 639.208 80.2475 662.151 -30.9753 683.928" stroke="#FAD3D3" stroke-opacity="0.8"/>
<path d="M1717.6 569.685C1646.03 580.235 1484.71 592.282 1365.05 571.924C1226.54 551.566 1028.71 476.708 873.685 504.417C528.803 593.628 77.3411 637.941 -30.6287 663.475" stroke="#FAD6D6" stroke-opacity="0.7"/>
<path d="M1717.6 525.947C1646.4 540.147 1471.58 559.792 1345.9 541C1199.02 522.208 987.681 440.122 831.706 465.7C503.056 548.048 74.4348 613.731 -30.2822 643.023" stroke="#F9D8D8"/>
<path d="M1717.6 482.21C1646.78 500.059 1458.45 527.302 1326.76 510.076C1171.5 492.851 946.649 403.537 789.727 426.983C477.308 502.469 71.5283 589.522 -29.9358 622.571" stroke="#F8DADA"/>
<path d="M1717.6 438.472C1647.15 459.971 1445.32 494.813 1307.61 479.153C1143.98 463.493 905.617 366.951 747.748 388.265C451.56 456.889 68.622 565.312 -29.5893 602.119" stroke="#F8DCDC"/>
<path d="M1717.6 394.734C1647.53 419.883 1432.2 462.323 1288.46 448.229C1116.46 434.135 864.585 330.365 705.768 349.548C425.813 411.309 65.7157 541.102 -29.2428 581.667" stroke="#F7DEDE"/>
<path d="M1717.6 350.996C1647.9 379.795 1419.07 429.833 1269.32 417.305C1088.94 404.777 823.553 293.779 663.789 310.831C400.065 365.73 62.809 516.892 -28.8966 561.215" stroke="#F6E0E0"/>
<path d="M1717.6 307.258C1648.28 339.707 1405.94 397.343 1250.17 386.381C1061.42 375.419 782.52 257.193 621.81 272.113C374.318 320.15 59.9028 492.682 -28.5499 540.763" stroke="#F6E2E2"/>
<path d="M1717.6 263.52C1648.65 299.619 1392.81 364.853 1231.02 355.457C1033.9 346.061 741.488 220.607 579.831 233.396C348.57 274.57 56.9963 468.472 -28.2035 520.311" stroke="#F5E4E4"/>
<path d="M1717.6 219.782C1649.03 259.531 1379.68 332.364 1211.88 324.534C1006.38 316.704 700.456 184.022 537.852 194.679C322.822 228.991 54.09 444.262 -27.857 499.859" stroke="#F4E7E7"/>
<path d="M1717.6 176.044C1649.41 219.443 1366.56 299.874 1192.73 293.61C978.858 287.346 659.424 147.436 495.872 155.962C297.075 183.411 51.1837 420.052 -27.5105 479.407" stroke="#F4E9E9"/>
<path d="M1717.6 132.306C1649.78 179.355 1353.43 267.384 1173.59 262.686C951.338 257.988 618.392 110.85 453.893 117.244C271.327 137.831 48.277 395.842 -27.1643 458.954" stroke="#F3EBEB"/>
<path d="M1717.6 88.5681C1650.16 139.267 1340.3 234.894 1154.44 231.762C923.818 228.63 577.359 74.2639 411.914 78.5268C245.579 92.2515 45.3709 371.633 -26.8176 438.502" stroke="#F3EDED"/>
<path d="M1717.6 44.8301C1650.53 99.1791 1327.17 202.404 1135.29 200.838C896.297 199.272 536.327 37.6779 369.935 39.8094C219.832 46.6717 42.4642 347.423 -26.4714 418.05" stroke="#F2EFEF"/>
</g>
</svg>
