<svg width="20" height="20" viewBox="0 0 20 20" fill="none" xmlns="http://www.w3.org/2000/svg">
<path d="M19.1487 6.19459C19.1058 5.22047 18.9482 4.55077 18.7226 3.97047C18.4898 3.35449 18.1316 2.803 17.6624 2.34455C17.204 1.87897 16.6488 1.51719 16.04 1.28803C15.4563 1.06237 14.7901 0.904847 13.816 0.861898C12.8346 0.815311 12.5231 0.804539 10.034 0.804539C7.54489 0.804539 7.23334 0.815311 6.25558 0.85826C5.28146 0.901209 4.61176 1.05888 4.0316 1.28439C3.41549 1.51719 2.864 1.87533 2.40555 2.34455C1.93997 2.803 1.57833 3.35813 1.34903 3.96697C1.12337 4.55077 0.965847 5.21683 0.922898 6.19095C0.876312 7.17235 0.86554 7.4839 0.86554 9.973C0.86554 12.4621 0.876312 12.7736 0.919261 13.7514C0.96221 14.7255 1.11988 15.3952 1.34553 15.9755C1.57833 16.5915 1.93997 17.143 2.40555 17.6014C2.864 18.067 3.41912 18.4288 4.02796 18.658C4.61176 18.8836 5.27783 19.0411 6.25208 19.0841C7.2297 19.1272 7.5414 19.1378 10.0305 19.1378C12.5196 19.1378 12.8311 19.1272 13.8089 19.0841C14.783 19.0411 15.4527 18.8836 16.0329 18.658C17.265 18.1816 18.2391 17.2075 18.7154 15.9755C18.941 15.3917 19.0986 14.7255 19.1416 13.7514C19.1845 12.7736 19.1953 12.4621 19.1953 9.973C19.1953 7.4839 19.1917 7.17235 19.1487 6.19459ZM17.4978 13.6798C17.4583 14.5751 17.3079 15.0586 17.1826 15.381C16.8745 16.1796 16.2406 16.8135 15.4419 17.1216C15.1196 17.2469 14.6326 17.3973 13.7408 17.4366C12.7738 17.4797 12.4838 17.4904 10.0376 17.4904C7.59148 17.4904 7.29783 17.4797 6.33435 17.4366C5.43899 17.3973 4.9555 17.2469 4.63317 17.1216C4.23572 16.9747 3.87394 16.7419 3.58029 16.4375C3.27587 16.1402 3.04307 15.782 2.89618 15.3846C2.77083 15.0623 2.62044 14.5751 2.58113 13.6834C2.53804 12.7164 2.5274 12.4263 2.5274 9.98013C2.5274 7.53399 2.53804 7.24034 2.58113 6.27699C2.62044 5.38163 2.77083 4.89814 2.89618 4.57581C3.04307 4.17822 3.27587 3.81658 3.58392 3.52279C3.88107 3.21837 4.23921 2.98557 4.63681 2.83882C4.95913 2.71347 5.44626 2.56308 6.33798 2.52362C7.30497 2.48068 7.59512 2.4699 10.0411 2.4699C12.4909 2.4699 12.7809 2.48068 13.7444 2.52362C14.6398 2.56308 15.1232 2.71347 15.4456 2.83882C15.843 2.98557 16.2048 3.21837 16.4985 3.52279C16.8029 3.82007 17.0357 4.17822 17.1826 4.57581C17.3079 4.89814 17.4583 5.38513 17.4978 6.27699C17.5407 7.24398 17.5515 7.53399 17.5515 9.98013C17.5515 12.4263 17.5407 12.7128 17.4978 13.6798Z" fill="#C60000"/>
<path d="M10.034 5.26342C7.43395 5.26342 5.3244 7.37283 5.3244 9.973C5.3244 12.5732 7.43395 14.6826 10.034 14.6826C12.6342 14.6826 14.7436 12.5732 14.7436 9.973C14.7436 7.37283 12.6342 5.26342 10.034 5.26342ZM10.034 13.028C8.34721 13.028 6.979 11.6599 6.979 9.973C6.979 8.28609 8.34721 6.91801 10.034 6.91801C11.7209 6.91801 13.089 8.28609 13.089 9.973C13.089 11.6599 11.7209 13.028 10.034 13.028Z" fill="#C60000"/>
<path d="M16.0294 5.07721C16.0294 5.68438 15.5371 6.17669 14.9298 6.17669C14.3226 6.17669 13.8303 5.68438 13.8303 5.07721C13.8303 4.46991 14.3226 3.97774 14.9298 3.97774C15.5371 3.97774 16.0294 4.46991 16.0294 5.07721Z" fill="#C60000"/>
</svg>
