<svg width="50" height="50" viewBox="0 0 50 50" fill="none" xmlns="http://www.w3.org/2000/svg">
<rect x="0.5" y="0.5" width="49" height="49" rx="9.5" fill="white" stroke="#FFE2E2"/>
<path d="M39.6611 18.9918C39.5957 17.5094 39.356 16.4903 39.0126 15.6073C38.6584 14.6699 38.1134 13.8307 37.3993 13.1331C36.7017 12.4246 35.8569 11.874 34.9304 11.5253C34.0423 11.1819 33.0285 10.9422 31.5461 10.8768C30.0527 10.8059 29.5786 10.7896 25.7908 10.7896C22.0031 10.7896 21.529 10.8059 20.0411 10.8713C18.5588 10.9367 17.5396 11.1766 16.6568 11.5198C15.7192 11.874 14.88 12.419 14.1824 13.1331C13.4739 13.8307 12.9235 14.6754 12.5746 15.6019C12.2312 16.4903 11.9915 17.5039 11.9262 18.9863C11.8553 20.4797 11.8389 20.9538 11.8389 24.7415C11.8389 28.5293 11.8553 29.0034 11.9206 30.4913C11.986 31.9737 12.2259 32.9928 12.5693 33.8758C12.9235 34.8132 13.4739 35.6524 14.1824 36.35C14.88 37.0585 15.7248 37.6091 16.6513 37.9578C17.5396 38.3012 18.5532 38.5409 20.0358 38.6063C21.5235 38.6718 21.9978 38.688 25.7855 38.688C29.5733 38.688 30.0474 38.6718 31.5353 38.6063C33.0176 38.5409 34.0367 38.3012 34.9196 37.9578C36.7945 37.2329 38.2769 35.7505 39.0018 33.8758C39.3449 32.9874 39.5849 31.9737 39.6502 30.4913C39.7156 29.0034 39.732 28.5293 39.732 24.7415C39.732 20.9538 39.7264 20.4797 39.6611 18.9918ZM37.1488 30.3823C37.0887 31.7448 36.8599 32.4805 36.6691 32.971C36.2003 34.1864 35.2357 35.151 34.0203 35.6198C33.5298 35.8106 32.7888 36.0394 31.4316 36.0993C29.9601 36.1648 29.5188 36.181 25.7964 36.181C22.074 36.181 21.6271 36.1648 20.161 36.0993C18.7985 36.0394 18.0627 35.8106 17.5722 35.6198C16.9674 35.3963 16.4169 35.042 15.97 34.5788C15.5068 34.1264 15.1525 33.5814 14.929 32.9766C14.7382 32.4861 14.5094 31.7448 14.4495 30.3878C14.384 28.9163 14.3678 28.4748 14.3678 24.7524C14.3678 21.03 14.384 20.5832 14.4495 19.1172C14.5094 17.7547 14.7382 17.0189 14.929 16.5284C15.1525 15.9234 15.5068 15.3731 15.9755 14.926C16.4277 14.4628 16.9727 14.1085 17.5778 13.8852C18.0683 13.6944 18.8095 13.4656 20.1665 13.4056C21.638 13.3402 22.0795 13.3238 25.8017 13.3238C29.5296 13.3238 29.9709 13.3402 31.4371 13.4056C32.7996 13.4656 33.5354 13.6944 34.0259 13.8852C34.6307 14.1085 35.1812 14.4628 35.6281 14.926C36.0913 15.3784 36.4456 15.9234 36.6691 16.5284C36.8599 17.0189 37.0887 17.76 37.1488 19.1172C37.2141 20.5887 37.2305 21.03 37.2305 24.7524C37.2305 28.4748 37.2141 28.9108 37.1488 30.3823Z" fill="#C60000"/>
<path d="M25.7908 17.5748C21.8343 17.5748 18.6241 20.7848 18.6241 24.7416C18.6241 28.6983 21.8343 31.9083 25.7908 31.9083C29.7476 31.9083 32.9576 28.6983 32.9576 24.7416C32.9576 20.7848 29.7476 17.5748 25.7908 17.5748ZM25.7908 29.3905C23.224 29.3905 21.142 27.3086 21.142 24.7416C21.142 22.1745 23.224 20.0927 25.7908 20.0927C28.3579 20.0927 30.4397 22.1745 30.4397 24.7416C30.4397 27.3086 28.3579 29.3905 25.7908 29.3905Z" fill="#C60000"/>
<path d="M34.9143 17.2914C34.9143 18.2154 34.1652 18.9646 33.241 18.9646C32.317 18.9646 31.5679 18.2154 31.5679 17.2914C31.5679 16.3673 32.317 15.6183 33.241 15.6183C34.1652 15.6183 34.9143 16.3673 34.9143 17.2914Z" fill="#C60000"/>
</svg>
