<svg width="50" height="50" viewBox="0 0 50 50" fill="none" xmlns="http://www.w3.org/2000/svg">
<rect x="0.5" y="0.5" width="49" height="49" rx="9.5" fill="white" stroke="#FFE2E2"/>
<path d="M20.0717 22.7447H20.8217V21.9947V18.3542C20.8217 16.1092 21.5076 14.333 22.6548 13.1238C23.7981 11.9188 25.4636 11.2086 27.5619 11.2085C27.5621 11.2085 27.5623 11.2085 27.5625 11.2085L31.4985 11.215V15.9214L28.8836 15.9224C28.8835 15.9224 28.8834 15.9224 28.8833 15.9224C27.8794 15.9224 27.0374 16.1165 26.4969 16.7454C25.9812 17.3455 25.9085 18.1612 25.9085 18.9086V21.9947V22.7447H26.6585H31.3087L31.3068 27.8281H26.6585H25.9085V28.5781V41.7918H20.8217V28.5781V27.8281H20.0717H16.1125V22.7447H20.0717ZM31.612 15.9214H31.6117H31.612ZM31.3068 27.9239C31.3068 27.9238 31.3068 27.9237 31.3068 27.9236V27.9239Z" fill="#C60000" stroke="#C60000" stroke-width="1.5"/>
</svg>
