<svg width="14" height="15" viewBox="0 0 14 15" fill="none" xmlns="http://www.w3.org/2000/svg">
<path d="M12.3219 6.20145C11.8263 5.75378 11.3382 5.29092 10.8501 4.83566C10.362 4.38799 9.88147 3.93272 9.39339 3.47746C8.7476 2.87803 8.10183 2.2786 7.45605 1.67917C7.26832 1.50465 7.08061 1.32254 6.87787 1.15561C6.73518 1.03421 6.52493 1.0418 6.39728 1.15561C6.22458 1.30737 6.22458 1.54259 6.41229 1.7171C6.68262 1.9675 6.95295 2.21789 7.22328 2.46829C7.78645 2.99183 8.34212 3.5154 8.90529 4.03136C9.47598 4.56249 10.0467 5.08606 10.6173 5.61719C10.9703 5.94347 11.3307 6.26974 11.6836 6.59602C11.9014 6.80087 12.1267 6.99057 12.3144 7.21821C13.1929 8.28048 13.4933 9.48694 13.1704 10.8375C12.9827 11.6267 12.5772 12.2944 11.9765 12.8255C11.0153 13.6754 9.89648 14.0016 8.63497 13.7816C7.92912 13.6602 7.29836 13.3567 6.75772 12.8786C6.08189 12.2716 5.42862 11.657 4.76031 11.0424C4.34732 10.6554 3.93432 10.2685 3.51381 9.88149C2.838 9.26689 2.16971 8.65228 1.50139 8.03009C1.34372 7.88592 1.19353 7.74175 1.02833 7.60517C0.893168 7.49135 0.750496 7.48377 0.607824 7.55965C0.472662 7.63552 0.427608 7.76452 0.435118 7.91628C0.442626 8.02251 0.495189 8.09838 0.56277 8.16668C0.990785 8.56882 1.41129 8.97096 1.83931 9.36553C2.25982 9.76008 2.68782 10.1471 3.11584 10.5416C3.59641 10.9817 4.06948 11.4294 4.55006 11.8695C5.05316 12.3323 5.55627 12.7876 6.05186 13.258C6.96796 14.1306 8.04927 14.5707 9.38587 14.5935C9.48348 14.5859 9.6637 14.5707 9.84392 14.5555C10.4597 14.4948 11.0379 14.3051 11.5785 14.0016C12.5096 13.4781 13.1929 12.7117 13.621 11.7253C13.8312 11.2321 13.9514 10.7161 13.9889 10.1774C14.034 9.49452 13.9439 8.83439 13.7111 8.19703C13.4257 7.4079 12.9376 6.75535 12.3219 6.20145Z" fill="#6C757D"/>
<path d="M11.5107 9.11509C11.5558 9.28203 11.5708 9.46414 11.6008 9.63107C11.6308 9.80557 11.7135 9.89663 11.8561 9.92698C12.0814 9.97251 12.2766 9.82075 12.2616 9.58554C12.2466 9.37308 12.2241 9.16062 12.164 8.95576C11.9913 8.31838 11.6609 7.77966 11.1578 7.35475C10.3919 6.70221 9.51331 6.49734 8.54465 6.66427C7.81627 6.79325 7.20804 7.16505 6.73498 7.74172C6.2544 8.32597 6.0141 9.00886 6.00659 9.7904C6.0141 9.89663 6.0141 10.0256 6.02913 10.147C6.05917 10.3291 6.0967 10.5037 6.14176 10.6782C6.5022 11.9302 7.62855 12.8634 9.01021 12.9241C9.70103 12.9545 10.3393 12.7724 10.91 12.3626C11.4506 11.9833 11.8336 11.4825 12.0589 10.8603C12.0889 10.7768 12.0964 10.663 12.0664 10.5795C12.0288 10.4581 11.9312 10.3823 11.7961 10.3671C11.6609 10.3519 11.5558 10.4126 11.4957 10.5264C11.4356 10.6326 11.3906 10.754 11.3305 10.8679C11.0001 11.528 10.482 11.9605 9.78364 12.1578C9.29555 12.2944 8.81496 12.2868 8.3344 12.1047C7.44082 11.7708 6.88516 11.1334 6.71244 10.2001C6.55476 9.35032 6.80255 8.60672 7.40327 7.98453C8.07908 7.29405 9.18291 7.03606 10.129 7.48374C10.8424 7.82518 11.308 8.35632 11.5107 9.11509Z" fill="#6C757D"/>
<path d="M2.22964 6.42127C2.74026 6.8917 3.24336 7.36215 3.75398 7.83259C4.03181 8.09057 4.30965 8.34855 4.59498 8.60653C4.66257 8.67482 4.73765 8.71276 4.82776 8.70518C5.0305 8.73553 5.22575 8.55342 5.21072 8.32578C5.19571 8.18922 5.12812 8.10575 5.03801 8.02228C4.54242 7.55942 4.04683 7.10416 3.55122 6.64891C2.58256 5.75355 1.62142 4.8582 0.660256 3.96284C0.600183 3.90973 0.532602 3.85661 0.457511 3.81867C0.262276 3.72762 0.0445154 3.84903 0.0069692 4.06149C-0.0155573 4.20566 0.0144791 4.33465 0.127115 4.44086C0.322349 4.62297 0.510074 4.80508 0.705308 4.98719C1.20841 5.46521 1.71902 5.94323 2.22964 6.42127Z" fill="#6C757D"/>
<path d="M0.472467 1.73979C0.998098 2.24058 1.52373 2.73378 2.04937 3.23458C2.68763 3.8416 3.32589 4.44861 3.96417 5.05563C4.11435 5.1998 4.27203 5.34397 4.42972 5.48055C4.62495 5.65505 4.93283 5.54123 5.00041 5.3212C5.05297 5.15427 5.00041 5.02527 4.88027 4.91146C4.6625 4.69901 4.44475 4.49414 4.22698 4.28927C3.68633 3.77331 3.14567 3.26492 2.61253 2.75654C2.162 2.33922 1.71897 1.91431 1.26842 1.4894C1.11824 1.34523 0.975572 1.20865 0.817882 1.07207C0.705246 0.973432 0.577594 0.935493 0.434922 1.01137C0.307269 1.07966 0.239688 1.18589 0.232178 1.37558C0.247196 1.41352 0.269724 1.49699 0.314777 1.56528C0.352323 1.62598 0.412394 1.68668 0.472467 1.73979Z" fill="#6C757D"/>
<path d="M4.15965 2.28623C4.27228 2.39246 4.39243 2.49869 4.50506 2.60492C5.33105 3.37887 6.15704 4.15281 6.99054 4.92676C7.13321 5.05576 7.2759 5.18475 7.42606 5.30614C7.53871 5.39719 7.67387 5.39719 7.80153 5.3289C7.92917 5.26061 7.98924 5.14681 7.98924 4.99505C7.99675 4.82053 7.8691 4.72948 7.76398 4.62325C7.24586 4.14523 6.72773 3.6672 6.21711 3.18158C5.78159 2.77944 5.35357 2.37729 4.92557 1.97514C4.79041 1.84614 4.65524 1.71715 4.51257 1.59575C4.3699 1.47435 4.16716 1.48952 4.0395 1.61851C3.90433 1.75509 3.88932 1.9372 4.00195 2.09654C4.0395 2.17242 4.09958 2.23312 4.15965 2.28623Z" fill="#6C757D"/>
<path d="M10.2867 10.3748C10.0314 10.7693 9.66349 11.0045 9.19043 11.0577C8.89008 11.0956 8.60472 11.0577 8.3344 10.9287C8.16921 10.8452 7.9965 10.8983 7.89888 11.0349C7.77873 11.2094 7.85383 11.4219 8.0791 11.5129C8.18422 11.5584 8.28935 11.5964 8.40198 11.6191C8.5822 11.6647 8.76993 11.6874 8.95765 11.6874C9.42322 11.6874 9.82119 11.5812 10.1816 11.346C10.3018 11.2701 10.4144 11.1791 10.527 11.0652C10.6622 10.9362 10.7748 10.7845 10.8725 10.6251C11.0226 10.3672 10.8049 10.1851 10.6171 10.1851C10.4595 10.1851 10.3694 10.2534 10.2867 10.3748Z" fill="#6C757D"/>
<path d="M5.39858 6.2318C5.59351 6.2318 5.7515 6.07214 5.7515 5.87517C5.7515 5.67822 5.59351 5.51855 5.39858 5.51855C5.20366 5.51855 5.04565 5.67822 5.04565 5.87517C5.04565 6.07214 5.20366 6.2318 5.39858 6.2318Z" fill="#6C757D"/>
</svg>
