<svg width="54" height="59" viewBox="0 0 54 59" fill="none" xmlns="http://www.w3.org/2000/svg">
<path d="M5.89773 6.19185H6.66903C6.60937 4.86657 5.46307 3.88645 3.83949 3.88645C2.22869 3.88645 0.988636 4.85378 0.988636 6.26003C0.988636 7.38077 1.78125 8.0839 3.14915 8.48872L4.19318 8.79554C5.27557 9.11088 6.01705 9.51571 6.01705 10.4063C6.01705 11.4546 5.06676 12.1578 3.76278 12.1578C2.58665 12.1578 1.66619 11.591 1.58097 10.5555H0.762784C0.856534 11.9362 1.98153 12.8865 3.76278 12.8865C5.65483 12.8865 6.78835 11.8169 6.78835 10.4191C6.78835 8.97026 5.52699 8.39071 4.41903 8.07963L3.49858 7.81543C2.65057 7.57679 1.75994 7.1464 1.75994 6.22594C1.75994 5.28844 2.59943 4.60236 3.81818 4.60236C4.97301 4.60236 5.79972 5.22026 5.89773 6.19185ZM16.9812 6.7373C16.6957 5.13077 15.3832 3.89071 13.5252 3.89071C11.3221 3.89071 9.75392 5.64213 9.75392 8.37367C9.75392 11.1052 11.3221 12.8566 13.5252 12.8566C15.3832 12.8566 16.6957 11.6123 16.9812 10.01L16.1801 10.01C15.9372 11.2075 14.8931 12.1066 13.5252 12.1066C11.8718 12.1066 10.5252 10.7984 10.5252 8.37367C10.5252 5.95747 11.8718 4.64071 13.5252 4.64071C14.8931 4.64071 15.9372 5.54412 16.1801 6.7373H16.9812ZM20.293 12.7373H21.0899L21.0899 9.2089H23.1225C23.2376 9.2089 23.3484 9.20463 23.4549 9.19611L25.3683 12.7373H26.2887L24.2731 9.0427C25.3598 8.68475 25.9223 7.78986 25.9223 6.62225C25.9223 5.09668 24.9635 4.01003 23.1098 4.01003H20.293L20.293 12.7373ZM21.0899 8.4802V4.72594H23.0885C24.4691 4.72594 25.1382 5.4802 25.1382 6.62225C25.1382 7.76429 24.4691 8.4802 23.1012 8.4802H21.0899ZM36.4581 8.37367C36.4581 5.64213 34.89 3.89071 32.6826 3.89071C30.4794 3.89071 28.9113 5.6464 28.9113 8.37367C28.9113 11.1009 30.4752 12.8566 32.6826 12.8566C34.89 12.8566 36.4581 11.1052 36.4581 8.37367ZM35.6826 8.37367C35.6868 10.7217 34.4042 12.1066 32.6826 12.1066C30.9567 12.1066 29.6826 10.7132 29.6826 8.37367C29.6826 6.0214 30.9695 4.64071 32.6826 4.64071C34.4042 4.64071 35.6826 6.02566 35.6826 8.37367ZM39.8253 12.7373H44.7813V12.0214H40.6222V4.01003L39.8253 4.01003V12.7373ZM48.0153 12.7373L52.9713 12.7373V12.0214L48.8122 12.0214V4.01003L48.0153 4.01003V12.7373Z" fill="#606060"/>
<path d="M27.5001 45.7373C27.5001 45.4612 27.2763 45.2373 27.0001 45.2373C26.724 45.2373 26.5001 45.4612 26.5001 45.7373L27.5001 45.7373ZM26.6466 58.0909C26.8418 58.2861 27.1584 58.2861 27.3537 58.0909L30.5357 54.9089C30.7309 54.7136 30.7309 54.397 30.5357 54.2018C30.3404 54.0065 30.0238 54.0065 29.8285 54.2018L27.0001 57.0302L24.1717 54.2018C23.9764 54.0065 23.6598 54.0065 23.4646 54.2018C23.2693 54.397 23.2693 54.7136 23.4646 54.9089L26.6466 58.0909ZM26.5001 45.7373L26.5001 57.7373L27.5001 57.7373L27.5001 45.7373L26.5001 45.7373Z" fill="#606060"/>
<rect x="20.5001" y="26.2373" width="13" height="24" rx="6" stroke="#606060"/>
</svg>
