<svg viewBox="0 0 208 728" fill="none" xmlns="http://www.w3.org/2000/svg">
<path d="M117.376 4.68096C117.376 4.68096 106.91 -2.07559 97.6249 2.14725C88.3402 6.37009 66.9009 28.16 63.6934 43.8689C60.486 59.7468 58.629 94.2052 55.928 101.975C64.7063 106.705 86.652 110.252 86.652 110.252C86.652 110.252 80.5748 119.035 71.1212 121.738C61.6677 124.441 39.5531 127.312 36.1769 131.028C32.8006 134.744 25.3728 145.048 23.3471 198.087C21.3213 251.126 16.7633 250.112 14.0623 259.909C11.3613 269.706 10.1796 294.199 6.80335 312.948C3.5959 331.698 -2.6502 353.994 1.23251 368.014C5.11522 382.034 10.5172 405.513 23.0094 406.358C25.7104 404.668 24.8664 400.952 23.1782 398.925C21.6589 396.898 15.4128 388.622 16.5945 380.852C17.6074 373.082 17.6074 373.419 18.4515 374.433C19.2955 375.446 19.9708 382.372 20.4772 385.919C20.8149 389.466 21.8277 390.818 23.3471 390.649C24.8664 390.48 27.5674 384.399 25.204 373.25C22.8406 362.102 13.2183 348.927 16.9321 338.285C20.646 327.644 34.3199 298.929 39.0467 283.726C43.7735 268.524 45.124 248.254 46.3057 242.511C47.6562 236.768 55.4216 213.289 55.7592 208.729C57.9538 224.775 59.1355 246.565 58.7979 251.802C58.4602 257.038 61.1612 264.301 51.7077 287.949C42.2541 311.597 36.6833 330.853 35.3328 350.616C33.9823 370.379 35.5016 401.628 39.2155 417.506C42.9294 433.384 54.5775 468.856 56.7721 484.902C58.9667 500.949 58.4602 537.604 55.928 554.326C53.3958 570.88 55.928 598.244 64.7063 627.466C73.4846 656.688 72.4717 660.573 71.6277 666.991C70.9524 673.579 71.7965 675.944 71.1212 682.7C70.446 689.457 58.7979 705.673 58.7979 710.402C58.7979 715.132 62.1741 724.929 72.9782 726.111C83.7822 727.293 97.4561 727.631 96.4432 712.767C95.4303 698.071 93.4046 686.248 95.4303 673.41C97.4561 660.573 91.7164 658.377 93.911 631.351C96.1056 604.324 99.4819 576.116 98.6378 556.86C97.9625 537.604 102.352 506.523 102.352 506.523C102.352 506.523 104.377 544.529 103.871 556.353C103.365 568.177 104.546 602.466 105.39 613.108C106.066 623.918 105.897 644.695 104.715 654.323C103.533 663.951 101.508 667.836 101.508 674.761C101.508 681.687 103.027 691.991 102.689 699.254C102.521 706.517 98.6378 722.395 109.273 726.28C119.739 730.334 134.089 725.267 136.79 720.537C139.491 715.807 135.777 712.767 130.037 695.707C124.804 675.437 128.349 679.153 128.011 673.241C127.842 667.16 124.466 660.91 125.986 654.998C127.505 648.918 146.75 598.919 145.737 572.231C144.724 545.542 140.672 523.246 143.542 508.213C146.243 493.179 163.969 422.573 167.514 396.561C171.059 370.548 174.097 323.421 163.462 293.692C152.827 263.963 147.931 258.22 149.451 241.836C150.97 225.62 154.009 209.573 154.009 209.573C154.009 209.573 159.242 225.282 162.28 242.174C165.319 258.896 168.358 287.442 180.85 309.739C193.342 332.036 194.524 335.583 192.16 345.718C189.628 356.021 183.382 372.744 183.382 380.683C183.382 388.622 183.72 389.635 185.577 389.635C187.434 389.804 188.953 386.088 189.122 381.696C189.291 377.304 190.641 374.94 191.485 375.277C192.329 375.615 193.004 379.669 191.316 386.088C189.628 392.507 189.122 395.209 186.421 398.25C183.889 401.29 181.356 404.668 185.239 406.189C189.122 407.709 193.849 405.513 196.55 401.459C199.251 397.405 205.328 382.034 206.341 374.433C207.354 366.832 210.055 359.231 205.159 327.813C200.263 296.395 197.225 268.186 195.368 259.741C193.511 251.295 189.797 252.308 189.628 236.093C189.459 219.877 188.615 173.932 187.94 160.419C187.265 146.906 186.252 135.251 172.747 130.353C159.242 125.454 147.087 126.468 140.841 120.894C134.595 115.488 133.92 110.421 133.92 110.421C133.92 110.421 148.944 107.718 159.917 100.793C157.047 93.6984 149.282 54.6794 146.75 36.6056C144.217 18.5319 135.439 8.05923 128.18 6.03227C120.921 4.0053 117.376 4.68096 117.376 4.68096Z" fill="#E8E8E8"/>
</svg>
